<svg width="65" height="35" viewBox="0 0 65 35" fill="none" xmlns="http://www.w3.org/2000/svg">
<g clip-path="url(#clip0_155_256)">
<path d="M48 3H18C9.71573 3 3 9.71573 3 18C3 26.2843 9.71573 33 18 33H48C56.2843 33 63 26.2843 63 18C63 9.71573 56.2843 3 48 3Z" fill="url(#paint0_linear_155_256)"/>
<g filter="url(#filter0_dd_155_256)">
<path d="M58.2001 18C58.2001 12.0353 53.3648 7.20001 47.4001 7.20001C41.4354 7.20001 36.6001 12.0353 36.6001 18C36.6001 23.9647 41.4354 28.8 47.4001 28.8C53.3648 28.8 58.2001 23.9647 58.2001 18Z" fill="url(#paint1_linear_155_256)"/>
</g>
</g>
<defs>
<filter id="filter0_dd_155_256" x="28.6001" y="-0.799988" width="36.6001" height="36.6" filterUnits="userSpaceOnUse" color-interpolation-filters="sRGB">
<feFlood flood-opacity="0" result="BackgroundImageFix"/>
<feColorMatrix in="SourceAlpha" type="matrix" values="0 0 0 0 0 0 0 0 0 0 0 0 0 0 0 0 0 0 127 0" result="hardAlpha"/>
<feOffset dx="-3" dy="-3"/>
<feGaussianBlur stdDeviation="2.5"/>
<feComposite in2="hardAlpha" operator="out"/>
<feColorMatrix type="matrix" values="0 0 0 0 0.913725 0 0 0 0 0.14902 0 0 0 0 0.14902 0 0 0 0.3 0"/>
<feBlend mode="normal" in2="BackgroundImageFix" result="effect1_dropShadow_155_256"/>
<feColorMatrix in="SourceAlpha" type="matrix" values="0 0 0 0 0 0 0 0 0 0 0 0 0 0 0 0 0 0 127 0" result="hardAlpha"/>
<feOffset dx="3" dy="3"/>
<feGaussianBlur stdDeviation="2"/>
<feComposite in2="hardAlpha" operator="out"/>
<feColorMatrix type="matrix" values="0 0 0 0 0 0 0 0 0 0 0 0 0 0 0 0 0 0 0.25 0"/>
<feBlend mode="normal" in2="effect1_dropShadow_155_256" result="effect2_dropShadow_155_256"/>
<feBlend mode="normal" in="SourceGraphic" in2="effect2_dropShadow_155_256" result="shape"/>
</filter>
<linearGradient id="paint0_linear_155_256" x1="3" y1="33" x2="63" y2="33" gradientUnits="userSpaceOnUse">
<stop stop-color="#E92626"/>
<stop offset="1" stop-color="#8A1F05"/>
</linearGradient>
<linearGradient id="paint1_linear_155_256" x1="36.6001" y1="7.20001" x2="58.2001" y2="28.8" gradientUnits="userSpaceOnUse">
<stop stop-color="#F2F3F6"/>
<stop offset="1" stop-color="#E5E6EC"/>
</linearGradient>
<clipPath id="clip0_155_256">
<rect width="65" height="35" fill="white"/>
</clipPath>
</defs>
</svg>
