<svg xmlns="http://www.w3.org/2000/svg" viewBox="0 0 622.27 452.37"><defs><style>.cls-1{fill:#8a1f05;}</style></defs><title>checkpoint</title><g id="Layer_2" data-name="Layer 2"><g id="Layer_2-2" data-name="Layer 2"><path class="cls-1" d="M311.14,41.61C218.38,41.92,126.9,28.09,6,.13A4.88,4.88,0,0,0,.84,7.6c8.6,12.82,23.46,34,32.3,40.77,8.39,6.45,13.45,7.91,16,8.13a5,5,0,0,1,3.57,1.94l9,12a4.89,4.89,0,0,0,3.91,2H88.7a4.87,4.87,0,0,1,3.9,1.95l9.07,12.09a4.89,4.89,0,0,0,3.91,2h47.83a4.87,4.87,0,0,1,4.87,5.23l-3.69,51.77H77a4.87,4.87,0,0,0-4.88,4.88v15.23A4.88,4.88,0,0,0,77,170.37H152.8L133,447.14a4.89,4.89,0,0,0,4.87,5.23H169a4.89,4.89,0,0,0,4.88-4.72l9.59-277.28h255.3l9.58,277.28a4.89,4.89,0,0,0,4.88,4.72h31.14a4.88,4.88,0,0,0,4.87-5.23L469.48,170.37h75.77a4.89,4.89,0,0,0,4.89-4.89V150.25a4.88,4.88,0,0,0-4.89-4.88H467.69L464,93.6a4.88,4.88,0,0,1,4.87-5.23H516.7a4.88,4.88,0,0,0,3.9-2l9.07-12.09a4.88,4.88,0,0,1,3.91-1.95H556.7a4.88,4.88,0,0,0,3.9-2l9-12a5,5,0,0,1,3.58-1.94c2.53-.22,7.58-1.68,16-8.13,8.84-6.8,23.69-27.95,32.29-40.77A4.88,4.88,0,0,0,616.27.13C495.38,28.09,403.9,41.92,311.14,41.61ZM184.36,145.37l1.8-52.29A4.89,4.89,0,0,1,191,88.37H431.23a4.88,4.88,0,0,1,4.88,4.71l1.81,52.29Z"/></g></g></svg>