<svg width="915" height="498" viewBox="0 0 915 498" fill="none" xmlns="http://www.w3.org/2000/svg">
<path d="M49.344 57.736V69.768H45.76V86.6C45.76 87.24 45.8453 87.7307 46.016 88.072C46.2293 88.3707 46.4853 88.6053 46.784 88.776C47.1253 88.904 47.5093 88.968 47.936 88.968C48.4053 88.968 48.8747 88.968 49.344 88.968V101H45.76C43.1147 101 40.9813 100.616 39.36 99.848C37.7813 99.0373 36.5653 97.928 35.712 96.52C34.9013 95.112 34.368 93.4693 34.112 91.592C33.856 89.672 33.728 87.6027 33.728 85.384V69.768H31.36V85.384H19.328V69.768H16.896V85.384C16.896 87.944 16.7467 90.2053 16.448 92.168C16.1493 94.088 15.5307 95.7093 14.592 97.032C13.6533 98.3547 12.3093 99.3573 10.56 100.04C8.85333 100.68 6.57067 101 3.712 101H1.28V88.968C1.74933 88.968 2.19733 88.968 2.624 88.968C3.09333 88.968 3.49867 88.904 3.84 88.776C4.18133 88.6053 4.43733 88.3707 4.608 88.072C4.82133 87.7307 4.928 87.24 4.928 86.6V69.768H1.28V57.736H19.328V55.368H31.36V57.736H49.344ZM73.729 88.968V69.768H64.129V88.968H73.729ZM85.761 101H52.097V57.736H85.761V101ZM126.549 57.736V69.768C126.037 69.768 125.568 69.7893 125.141 69.832C124.714 69.832 124.33 69.896 123.989 70.024C123.69 70.152 123.434 70.3867 123.221 70.728C123.05 71.0693 122.965 71.56 122.965 72.2V89.032V101H110.933L87.445 57.736H99.797L110.933 78.344C110.933 76.9787 110.912 75.528 110.869 73.992C110.869 72.4133 110.933 70.856 111.061 69.32C111.189 67.784 111.424 66.3333 111.765 64.968C112.149 63.56 112.746 62.3227 113.557 61.256C114.368 60.1893 115.434 59.336 116.757 58.696C118.08 58.056 119.744 57.736 121.749 57.736H126.549ZM132.488 85.384H128.904V73.416H132.488V69.768H128.904V57.8H166.152V69.768H144.52V74.568H158.92V85.384H144.52C144.477 87.816 145.672 89.032 148.104 89.032H166.152V101H148.104C145.97 101 143.944 100.595 142.024 99.784C140.146 98.9307 138.504 97.8 137.095 96.392C135.688 94.984 134.557 93.3413 133.704 91.464C132.893 89.544 132.488 87.5173 132.488 85.384ZM246.719 57.736V69.768C246.25 69.768 245.78 69.768 245.311 69.768C244.884 69.768 244.5 69.8533 244.159 70.024C243.86 70.152 243.604 70.3867 243.391 70.728C243.22 71.0267 243.135 71.496 243.135 72.136V88.968H246.719V101H228.671V103.432H216.639V101H198.655V88.968H202.239V72.136C202.239 71.496 202.132 71.0267 201.919 70.728C201.748 70.3867 201.492 70.152 201.151 70.024C200.852 69.8533 200.468 69.768 199.999 69.768C199.572 69.768 199.124 69.768 198.655 69.768V57.736H202.239C204.884 57.736 206.996 58.1413 208.575 58.952C210.196 59.72 211.412 60.808 212.223 62.216C213.076 63.624 213.631 65.288 213.887 67.208C214.143 69.0853 214.271 71.1333 214.271 73.352V88.968H216.639V73.352H228.671V88.968H231.103V73.352C231.103 70.792 231.252 68.552 231.551 66.632C231.892 64.6693 232.532 63.048 233.471 61.768C234.41 60.4453 235.732 59.4427 237.439 58.76C239.188 58.0773 241.471 57.736 244.287 57.736H246.719ZM264.835 57.736V90.184C264.835 91.6773 264.536 93.0853 263.939 94.408C263.384 95.688 262.616 96.8187 261.635 97.8C260.654 98.7813 259.502 99.5707 258.179 100.168C256.899 100.723 255.512 101 254.019 101H249.219V88.968C249.688 88.968 250.136 88.968 250.563 88.968C251.032 88.9253 251.416 88.84 251.715 88.712C252.056 88.584 252.312 88.3707 252.483 88.072C252.696 87.7307 252.803 87.24 252.803 86.6V69.768V57.736H264.835ZM290.125 86.536C290.125 87.176 290.21 87.6667 290.381 88.008C290.594 88.3493 290.85 88.6053 291.149 88.776C291.49 88.904 291.874 88.968 292.301 88.968C292.728 88.968 293.197 88.968 293.709 88.968V101H288.909C287.416 101 286.008 100.723 284.685 100.168C283.405 99.5707 282.274 98.7813 281.293 97.8C280.312 96.8187 279.522 95.688 278.925 94.408C278.37 93.0853 278.093 91.6773 278.093 90.184V85.384V69.768H267.277V57.736H300.877V69.768H290.125V86.536ZM344.048 88.968V101H339.248C337.755 101 336.347 100.723 335.024 100.168C333.744 99.5707 332.613 98.7813 331.632 97.8C330.651 96.8187 329.861 95.688 329.264 94.408C328.709 93.0853 328.432 91.6773 328.432 90.184V85.384H318.768V101H306.8V85.384H303.152V73.352H306.8V57.736H318.768V73.352H328.432V57.736H340.4V69.768V86.6C340.4 87.24 340.485 87.7307 340.656 88.072C340.869 88.3707 341.147 88.6053 341.488 88.776C341.829 88.904 342.213 88.968 342.64 88.968C343.109 88.968 343.579 88.968 344.048 88.968ZM399.063 86.536C399.063 87.176 399.148 87.6667 399.319 88.008C399.532 88.3493 399.788 88.6053 400.087 88.776C400.428 88.904 400.812 88.968 401.239 88.968C401.665 88.968 402.135 88.968 402.647 88.968V101H397.847C396.353 101 394.945 100.723 393.623 100.168C392.343 99.5707 391.212 98.7813 390.231 97.8C389.249 96.8187 388.46 95.688 387.863 94.408C387.308 93.0853 387.031 91.6773 387.031 90.184V85.384V69.768H376.215V57.736H409.815V69.768H399.063V86.536ZM452.986 88.968V101H448.186C446.692 101 445.284 100.723 443.962 100.168C442.682 99.5707 441.551 98.7813 440.57 97.8C439.588 96.8187 438.799 95.688 438.202 94.408C437.647 93.0853 437.37 91.6773 437.37 90.184V85.384H427.706V101H415.738V85.384H412.09V73.352H415.738V57.736H427.706V73.352H437.37V57.736H449.338V69.768V86.6C449.338 87.24 449.423 87.7307 449.594 88.072C449.807 88.3707 450.084 88.6053 450.426 88.776C450.767 88.904 451.151 88.968 451.578 88.968C452.047 88.968 452.516 88.968 452.986 88.968ZM458.8 85.384H455.216V73.416H458.8V69.768H455.216V57.8H492.464V69.768H470.832V74.568H485.232V85.384H470.832C470.789 87.816 471.984 89.032 474.416 89.032H492.464V101H474.416C472.283 101 470.256 100.595 468.336 99.784C466.459 98.9307 464.816 97.8 463.408 96.392C462 94.984 460.869 93.3413 460.016 91.464C459.205 89.544 458.8 87.5173 458.8 85.384ZM539.368 57.8V55.368H551.4V57.8H565.8V69.768H562.152V86.6C562.152 87.24 562.237 87.7307 562.408 88.072C562.621 88.4133 562.898 88.6693 563.24 88.84C563.581 88.968 563.965 89.032 564.392 89.032C564.818 89.032 565.288 89.032 565.8 89.032V101H561C558.525 101 556.562 100.531 555.112 99.592C553.704 98.6533 552.616 97.4587 551.848 96.008C551.122 94.5147 550.653 92.8507 550.44 91.016C550.269 89.1387 550.184 87.2613 550.184 85.384H540.583V90.248C540.583 91.7413 540.285 93.1493 539.688 94.472C539.133 95.752 538.365 96.8827 537.384 97.864C536.402 98.8453 535.25 99.6133 533.928 100.168C532.605 100.723 531.218 101 529.768 101H524.904V89.032C525.416 89.032 525.885 89.032 526.312 89.032C526.738 89.032 527.122 88.968 527.464 88.84C527.805 88.6693 528.061 88.4133 528.232 88.072C528.445 87.7307 528.552 87.24 528.552 86.6V69.768H524.904V57.8H539.368ZM550.184 73.416V69.768H540.583V73.416H550.184ZM605.336 90.184V101C602.819 101 600.429 100.68 598.168 100.04C595.907 99.3573 593.88 98.376 592.088 97.096C590.296 95.7733 588.781 94.152 587.544 92.232C586.349 90.2693 585.539 87.9867 585.112 85.384H583.704V101H571.672V85.384H568.088V73.352H571.672V69.704H568.088V57.736H605.336V74.568C605.336 75.8907 605.101 77.1493 604.632 78.344C604.163 79.5387 603.523 80.6267 602.712 81.608C601.901 82.5467 600.941 83.336 599.832 83.976C598.723 84.616 597.507 85.0213 596.184 85.192C596.525 86.1733 597.016 86.984 597.656 87.624C598.296 88.264 599.021 88.776 599.832 89.16C600.685 89.544 601.581 89.8213 602.52 89.992C603.459 90.12 604.397 90.184 605.336 90.184ZM593.304 74.568V69.704H583.704V74.568H593.304ZM644.836 90.184V101C642.319 101 639.929 100.68 637.668 100.04C635.407 99.3573 633.38 98.376 631.588 97.096C629.796 95.7733 628.281 94.152 627.044 92.232C625.849 90.2693 625.039 87.9867 624.612 85.384H623.204V101H611.172V85.384H607.588V73.352H611.172V69.704H607.588V57.736H644.836V74.568C644.836 75.8907 644.601 77.1493 644.132 78.344C643.663 79.5387 643.023 80.6267 642.212 81.608C641.401 82.5467 640.441 83.336 639.332 83.976C638.223 84.616 637.007 85.0213 635.684 85.192C636.025 86.1733 636.516 86.984 637.156 87.624C637.796 88.264 638.521 88.776 639.332 89.16C640.185 89.544 641.081 89.8213 642.02 89.992C642.959 90.12 643.897 90.184 644.836 90.184ZM632.804 74.568V69.704H623.204V74.568H632.804ZM669.104 88.968V69.768H659.504V88.968H669.104ZM681.136 101H647.472V57.736H681.136V101ZM731.844 57.736V69.768C731.375 69.768 730.905 69.768 730.436 69.768C730.009 69.768 729.625 69.8533 729.284 70.024C728.985 70.152 728.729 70.3867 728.516 70.728C728.345 71.0267 728.26 71.496 728.26 72.136V88.968H731.844V101H713.796V103.432H701.764V101H683.78V88.968H687.364V72.136C687.364 71.496 687.257 71.0267 687.044 70.728C686.873 70.3867 686.617 70.152 686.276 70.024C685.977 69.8533 685.593 69.768 685.124 69.768C684.697 69.768 684.249 69.768 683.78 69.768V57.736H687.364C690.009 57.736 692.121 58.1413 693.7 58.952C695.321 59.72 696.537 60.808 697.348 62.216C698.201 63.624 698.756 65.288 699.012 67.208C699.268 69.0853 699.396 71.1333 699.396 73.352V88.968H701.764V73.352H713.796V88.968H716.228V73.352C716.228 70.792 716.377 68.552 716.676 66.632C717.017 64.6693 717.657 63.048 718.596 61.768C719.535 60.4453 720.857 59.4427 722.564 58.76C724.313 58.0773 726.596 57.736 729.412 57.736H731.844ZM798.008 57.736C797.027 59.144 795.875 60.8293 794.552 62.792C793.272 64.7547 792.035 66.824 790.84 69C789.688 71.176 788.707 73.352 787.896 75.528C787.085 77.704 786.68 79.688 786.68 81.48C786.68 83.1013 787.021 84.4027 787.704 85.384C788.429 86.3227 789.325 87.0693 790.392 87.624C791.501 88.1787 792.717 88.5413 794.04 88.712C795.405 88.8827 796.728 88.968 798.008 88.968V101C795.747 101 793.528 100.808 791.352 100.424C789.219 100.04 787.213 99.4 785.336 98.504C783.459 97.608 781.752 96.4347 780.216 94.984C778.68 93.5333 777.4 91.72 776.376 89.544V101H764.344V57.736H776.376V72.136C777.187 69.576 778.232 67.1013 779.512 64.712C780.835 62.3227 782.2 59.9973 783.608 57.736H798.008ZM804.05 85.384H800.466V73.416H804.05V69.768H800.466V57.8H837.714V69.768H816.082V74.568H830.482V85.384H816.082C816.039 87.816 817.234 89.032 819.666 89.032H837.714V101H819.666C817.533 101 815.506 100.595 813.586 99.784C811.709 98.9307 810.066 97.8 808.658 96.392C807.25 94.984 806.119 93.3413 805.266 91.464C804.455 89.544 804.05 87.5173 804.05 85.384ZM877.338 74.568V85.384H873.754C873.754 87.5173 873.327 89.544 872.474 91.464C871.663 93.3413 870.554 94.984 869.146 96.392C867.738 97.8 866.074 98.9307 864.154 99.784C862.276 100.595 860.271 101 858.138 101H847.322V88.968H858.138C860.57 88.968 861.764 87.7733 861.722 85.384C860.57 85.384 859.226 85.448 857.69 85.576C856.196 85.6613 854.639 85.704 853.018 85.704C851.439 85.704 849.86 85.5973 848.282 85.384C846.746 85.1707 845.359 84.7653 844.122 84.168C842.927 83.5707 841.946 82.7387 841.178 81.672C840.452 80.5627 840.09 79.112 840.09 77.32V57.736H852.122V74.568H861.722V57.736H873.754V74.568H877.338ZM879.718 85.384V73.352C879.718 71.2187 880.123 69.2133 880.934 67.336C881.787 65.416 882.918 63.752 884.326 62.344C885.734 60.936 887.376 59.8267 889.254 59.016C891.174 58.1627 893.2 57.736 895.333 57.736H913.382V69.704H901.35C899.984 69.704 898.704 69.6613 897.51 69.576C896.358 69.448 895.355 69.4907 894.502 69.704C893.648 69.8747 892.966 70.3227 892.454 71.048C891.984 71.7307 891.75 72.904 891.75 74.568H913.382V85.384C913.382 87.5173 912.955 89.544 912.102 91.464C911.291 93.3413 910.182 94.984 908.774 96.392C907.366 97.8 905.702 98.9307 903.782 99.784C901.904 100.595 899.899 101 897.766 101H879.718V88.968H895.333C896.059 88.968 896.784 88.9893 897.51 89.032C898.235 89.032 898.875 88.9467 899.43 88.776C900.027 88.5627 900.496 88.2 900.838 87.688C901.179 87.176 901.35 86.408 901.35 85.384H879.718Z" fill="white"/>
<rect x="390.75" y="226" width="133.5" height="133.5" rx="24" fill="black" stroke="white" stroke-width="10"/>
<path d="M450.969 267.406C454.17 263.185 460.517 263.185 463.718 267.406L485.717 296.416C489.712 301.685 485.954 309.25 479.342 309.25H435.345C428.733 309.25 424.975 301.685 428.97 296.416L450.969 267.406Z" fill="white"/>
<rect x="257.25" y="493" width="133.5" height="133.5" rx="24" transform="rotate(-90 257.25 493)" fill="black" stroke="white" stroke-width="10"/>
<path d="M298.75 419.626C294.528 422.827 294.528 429.173 298.75 432.374L327.76 454.373C333.028 458.368 340.594 454.61 340.594 447.999L340.594 404.001C340.594 397.39 333.028 393.632 327.76 397.627L298.75 419.626Z" fill="white"/>
<rect width="133.5" height="133.5" rx="24" transform="matrix(0 -1 -1 0 657.75 493)" fill="black" stroke="white" stroke-width="10"/>
<path d="M615.937 419.626C620.159 422.827 620.159 429.173 615.937 432.374L586.927 454.373C581.659 458.368 574.094 454.61 574.094 447.999L574.094 404.001C574.094 397.39 581.659 393.632 586.927 397.627L615.937 419.626Z" fill="white"/>
</svg>
