<svg id="Layer_1" data-name="Layer 1" xmlns="http://www.w3.org/2000/svg" viewBox="0 0 1000 1000"><defs><style>.cls-1{fill:#c1272d;}.cls-2{fill:#fff;}</style></defs><title>totd_logo_b</title><rect class="cls-1" x="289.01" y="150.65" width="8" height="6.48"/><polygon class="cls-1" points="336.4 166.13 336.4 204.05 289.01 204.05 288.86 359.98 250.09 374.24 250.09 386.18 296.86 368.98 297.01 213.05 344.4 213.05 344.4 166.13 336.4 166.13"/><rect class="cls-1" x="203.33" y="204.05" width="38.76" height="9"/><rect class="cls-1" x="359.1" y="204.05" width="8.11" height="9"/><polygon class="cls-1" points="421.97 212.89 455.26 212.89 455.26 203.89 413.97 203.89 413.97 235.33 421.97 235.33 421.97 212.89"/><rect class="cls-1" x="414.28" y="150.65" width="8" height="6.48"/><polygon class="cls-1" points="502.18 166.13 502.18 359.82 463.67 372.78 463.73 384.46 510.18 368.82 510.18 166.13 502.18 166.13"/><path class="cls-1" d="M455.26,281.62h-41q-1.35,55.88-43.38,76.83l3.68,11,.63-.31v.31l.15-.31q45.52-20.33,46.92-78.51h33Z"/><polygon class="cls-1" points="561.76 313.52 569.79 313.52 570.23 165.35 562.21 165.43 561.76 313.52"/><polygon class="cls-1" points="640.59 322.52 640.59 360.44 523 360.44 523 369.44 648.59 369.44 648.59 322.52 640.59 322.52"/><rect class="cls-1" x="718.16" y="150.65" width="8" height="6.48"/><rect class="cls-1" x="663.91" y="204.05" width="7.33" height="9"/><polygon class="cls-1" points="796.36 166.13 796.36 204.05 718.16 204.05 718.16 235.48 726.16 235.48 726.16 213.05 804.36 213.05 804.36 166.13 796.36 166.13"/><path class="cls-1" d="M796.35,360.13H733.8q-29,0-44.52-13.32,15,22.31,52.52,22.32h62.55V322.21h-8Z"/><path class="cls-1" d="M796.35,282.4H718.16v15.49q0,11.34,8.57,14.28a22.61,22.61,0,0,1-.57-5.28V291.4h78.19V244.48h-8Z"/><path class="cls-1" d="M253.17,530.24a28.92,28.92,0,0,1-1.67-10.48V486.83q.1-21.66,22.2-21.66a26.21,26.21,0,0,1,11.61,2.31c-2.82-7.52-9.34-11.31-19.61-11.31q-22.09,0-22.2,21.66v32.93Q243.43,525.36,253.17,530.24Z"/><path class="cls-1" d="M311.63,443.41q8.43,13,8.44,34.53l-.22,33q0,54.46-54.26,54.58-24.93,0-38.5-11.24,13,20.16,46.5,20.24,54.26-.1,54.26-54.58l.22-33Q328.07,456.91,311.63,443.41Z"/><rect class="cls-1" x="339.12" y="456.06" width="2.72" height="9"/><path class="cls-1" d="M440.29,432.25v23.81H374.65v17.51a41.06,41.06,0,0,1,8-4v-4.54h65.64V432.25Z"/><path class="cls-1" d="M407.25,504.41q-17.72-10.38-32.6,6.79v54.25l-24.81.17v9l32.81-.22V520.2q14.88-17.18,32.6-6.79L429,485.63a62.21,62.21,0,0,0-9.78-5.41Z"/><rect class="cls-1" x="529.34" y="421.42" width="8" height="1.83"/><polygon class="cls-1" points="562.49 432.25 562.49 456.06 529.34 456.06 529.23 565.12 504.52 574.21 504.52 586.16 537.23 574.12 537.34 465.06 570.49 465.06 570.49 432.25 562.49 432.25"/><rect class="cls-1" x="471.82" y="456.06" width="24.71" height="9"/><rect class="cls-1" x="581.1" y="510.76" width="2.94" height="9"/><polygon class="cls-1" points="616.85 477.94 624.83 477.94 624.74 431.59 616.76 431.59 616.85 477.94"/><polygon class="cls-1" points="682.49 432.14 682.49 565.45 657.67 574.39 657.67 586.27 690.49 574.45 690.49 432.14 682.49 432.14"/><polygon class="cls-1" points="649.67 510.32 616.85 510.32 616.85 565.34 592.03 565.43 592.03 574.45 624.85 574.34 624.85 519.32 649.67 519.32 649.67 510.32"/><rect class="cls-1" x="736.85" y="421.42" width="8" height="1.83"/><polygon class="cls-1" points="791.55 432.25 791.55 456.06 736.85 456.06 736.85 478.05 744.85 478.05 744.85 465.06 799.55 465.06 799.55 432.25 791.55 432.25"/><rect class="cls-1" x="701.31" y="456.06" width="2.72" height="9"/><path class="cls-1" d="M791.55,565.23H747.79q-19,0-29.72-8.17,10.21,17.18,37.72,17.17h43.76V541.42h-8Z"/><path class="cls-1" d="M791.55,510.87h-54.7V521.7q0,9.19,8.06,10.49c0-.48-.06-1-.06-1.49V519.87h54.7V487.05h-8Z"/><rect class="cls-1" x="261.48" y="613.94" width="8" height="7.79"/><polygon class="cls-1" points="269.48 783.4 269.48 681.62 305.28 681.62 305.28 672.62 261.48 672.62 261.48 774.4 225.68 774.54 225.68 783.57 269.48 783.4"/><rect class="cls-1" x="211.37" y="672.62" width="6.31" height="9"/><path class="cls-1" d="M349.08,630.73V740.14q0,102.29-73.29,102.46h-50.4v9h58.4q73.29-.17,73.29-102.46V630.73Z"/><path class="cls-1" d="M494.79,841.92h-58.4q-24.93,0-39.21-12.29,14.37,21.29,47.21,21.29h58.4V800h-8Z"/><rect class="cls-1" x="371.68" y="672.62" width="6.31" height="9"/><rect class="cls-1" x="421.79" y="613.94" width="8" height="7.79"/><path class="cls-1" d="M494.79,757.61h-73V774.4c0,8.6,2.94,13.84,8.79,15.77a26.44,26.44,0,0,1-.79-6.77V766.61h73V715.72h-8Z"/><polygon class="cls-1" points="494.79 630.73 494.79 672.62 421.79 672.62 421.79 706.72 429.79 706.72 429.79 681.62 502.79 681.62 502.79 630.73 494.79 630.73"/><polygon class="cls-1" points="575.5 681.45 606.04 681.45 606.04 672.45 567.5 672.45 567.5 706.55 575.5 706.55 575.5 681.45"/><rect class="cls-1" x="567.79" y="613.94" width="8" height="7.79"/><rect class="cls-1" x="516.81" y="672.62" width="7.04" height="9"/><polygon class="cls-1" points="649.85 630.73 649.85 841.58 614.43 855.44 614.48 867.55 657.85 850.58 657.85 630.73 649.85 630.73"/><path class="cls-1" d="M606,756.76H567.79q-1.24,60.11-39.86,83l3.33,11.54.58-.34v.34l.15-.34q42.5-22,43.8-85.16h30.29Z"/><rect class="cls-1" x="720.21" y="613.94" width="8" height="7.79"/><polygon class="cls-1" points="728.21 783.4 728.21 681.62 764.01 681.62 764.01 672.62 720.21 672.62 720.21 774.4 684.41 774.54 684.41 783.57 728.21 783.4"/><path class="cls-1" d="M807.81,630.73V740.14q0,102.29-73.29,102.46h-50.4v9h58.4q73.29-.17,73.29-102.46V630.73Z"/><rect class="cls-1" x="670.11" y="672.62" width="6.31" height="9"/><path class="cls-2" d="M233,367V193.86H186.19V146.94H233V131.45h46.92v15.49h47.38v46.92H279.87l-.16,155.92Z"/><path class="cls-2" d="M358.22,349.94l-.16.31v-.31l-.62.31-15.8-47.07q15-10.64,16.42-31.28v-78H342V146.94h16.27V131.45h46.92v15.49H493V349.62l-46.45,15.65-.47-93.84h-41Q403.73,329.6,358.22,349.94Zm46.61-124.81h41.28V193.7H404.83Z"/><path class="cls-2" d="M553.09,146.16l-.47,157.17h78.82v46.92H505.86l-.16-203.62Z"/><path class="cls-2" d="M662.1,287.85v-94H646.77V146.94H662.1V131.45H709v15.49h78.2v46.92H709v31.43h78.2v46.92H709v15.48Q709,303,724.65,303h62.56v46.92H724.65Q662.1,349.94,662.1,287.85Z"/><path class="cls-2" d="M310.7,500.78q0,54.48-54.25,54.59-55-.11-54.81-54.48v-33q0-54.58,55-54.7,54.25,0,54.25,54.59Zm-76.35-.22q-.1,22,22,22,21.54,0,21.77-22l-.33-32.48q.33-22.09-21.22-22.1-22.09,0-22.21,21.66Z"/><path class="cls-2" d="M365.51,501v54.26l-32.82.22V445.87H322V413.05H431.14v32.82H365.51v17.5q21.44-13.56,46.38,3.07l-13.78,27.78Q380.38,483.83,365.51,501Z"/><path class="cls-2" d="M487.38,567V445.87H454.67V413.05h32.71V402.22H520.2v10.83h33.14v32.82H520.2l-.11,109.06Z"/><path class="cls-2" d="M574.89,555.26v-54.7H564V467.64l10.94-.11V412.4H607.6l.11,55.35h33l-.11-54.81h32.71V555.26l-32.82,11.81V500.13H607.71v55Z"/><path class="cls-2" d="M694.89,511.61V445.87H684.17V413.05h10.72V402.22h32.82v10.83H782.4v32.82H727.71v22H782.4v32.81H727.71V511.5q0,10.72,10.94,10.72H782.4V555H738.65Q694.88,555,694.89,511.61Z"/><path class="cls-2" d="M208.54,764.38v-102H194.23V611.54h14.31v-16.8h43.8v16.8h87.6v118.4q0,102.3-73.3,102.47h-58.4V780.84H266.5q29.78,0,29.64-50.39v-68h-43.8V764.21Z"/><path class="cls-2" d="M368.84,764.38v-102h-14.3V611.54h14.3v-16.8h43.8v16.8h73v50.89h-73v34.1h73v50.89h-73v16.79q0,16.63,14.6,16.63h58.4v50.89h-58.4Q368.85,831.73,368.84,764.38Z"/><path class="cls-2" d="M514.85,831.73l-.15.34v-.34l-.58.34L499.37,781q14-11.53,15.33-33.93V662.43h-15V611.54h15.19v-16.8h43.79v16.8H640.7V831.39l-43.36,17-.44-101.78H558.64Q557.34,809.68,514.85,831.73Zm43.5-135.37H596.9v-34.1H558.35Z"/><path class="cls-2" d="M667.27,764.38v-102H653V611.54h14.31v-16.8h43.8v16.8h87.6v118.4q0,102.3-73.29,102.47H667V780.84h58.25q29.79,0,29.64-50.39v-68h-43.8V764.21Z"/></svg>